<svg xmlns="http://www.w3.org/2000/svg" xmlns:xlink="http://www.w3.org/1999/xlink" version="1.1" id="Layer_1" x="0px" y="0px" style="enable-background:new 0 0 442.84 427.64;" xml:space="preserve" viewBox="25.72 150.46 391.4 126.72">
<g>
	<g>
		<polygon points="41.62,275.67 42.15,275.67 41.62,275.14   "/>
		<polygon points="82.25,214.38 99.26,231.39 67.45,261.92 81.21,275.67 146.65,275.67 146.65,233.16 105.06,191.57   "/>
		<polygon points="71.36,176.37 26.63,221.1 50.44,244.91 82.25,214.38 65.96,198.09 113.23,150.82 25.72,150.82 25.72,187.98     54.35,159.36   "/>
		<polygon points="146.65,195.75 146.65,150.82 145.82,150.82 123.77,172.87   "/>
	</g>
	<g>
		<path d="M165.71,211.52v-61.06h42.37v11.22h-29.49v15.7h25.34v11.22h-25.34v22.92H165.71z"/>
		<path d="M214.89,212.36v-61.9h12.88v26.75h24.09v-26.75h12.88v61.9h-12.88v-23.93h-24.09v23.93H214.89z"/>
		<path d="M276.12,212.36v-61.9H289v61.9H276.12z"/>
		<path d="M300.38,212.36v-61.9h23.68c4.26,0,8.04,0.75,11.34,2.24c3.29,1.5,5.88,3.71,7.77,6.65c1.88,2.94,2.82,6.56,2.82,10.88    c0,4.21-0.97,7.8-2.91,10.76c-1.94,2.96-4.54,5.19-7.81,6.69l14.12,24.68h-14.46l-15.29-27.33l8.31,4.9h-14.71v22.43H300.38z     M313.26,178.71h10.88c1.83,0,3.41-0.36,4.74-1.08c1.33-0.72,2.37-1.72,3.12-2.99c0.75-1.27,1.12-2.74,1.12-4.4    c0-1.72-0.37-3.21-1.12-4.49c-0.75-1.27-1.79-2.27-3.12-2.99c-1.33-0.72-2.91-1.08-4.74-1.08h-10.88V178.71z"/>
	</g>
	<g>
		<g>
			<g>
				<path d="M180.75,276.22v-48.54h-15.04v-10.74h42.18v10.74h-14.8v48.54H180.75z"/>
				<path d="M236.54,277.18c-4.46,0-8.59-0.77-12.41-2.31c-3.82-1.54-7.15-3.7-9.99-6.49c-2.84-2.79-5.05-6.03-6.65-9.75      c-1.59-3.71-2.39-7.75-2.39-12.1c0-4.35,0.78-8.38,2.35-12.1c1.56-3.71,3.77-6.95,6.61-9.71c2.84-2.76,6.17-4.91,9.99-6.45      c3.82-1.54,7.98-2.31,12.49-2.31c4.51,0,8.67,0.77,12.49,2.31c3.82,1.54,7.15,3.69,9.99,6.45c2.84,2.76,5.04,6,6.61,9.71      c1.56,3.71,2.35,7.75,2.35,12.1c0,4.35-0.8,8.38-2.39,12.1c-1.59,3.71-3.81,6.96-6.65,9.75c-2.84,2.79-6.17,4.95-9.99,6.49      C245.13,276.41,240.99,277.18,236.54,277.18z M236.54,266.03c2.71,0,5.21-0.48,7.52-1.43c2.31-0.95,4.34-2.29,6.09-4.02      c1.75-1.72,3.1-3.78,4.06-6.17c0.96-2.39,1.43-5.01,1.43-7.88c0-2.86-0.48-5.48-1.43-7.84c-0.95-2.36-2.31-4.42-4.06-6.17      c-1.75-1.75-3.78-3.09-6.09-4.02c-2.31-0.93-4.81-1.39-7.52-1.39c-2.71,0-5.21,0.47-7.52,1.39c-2.31,0.93-4.34,2.27-6.09,4.02      c-1.75,1.75-3.1,3.81-4.06,6.17c-0.95,2.36-1.43,4.97-1.43,7.84c0,2.86,0.48,5.49,1.43,7.88c0.96,2.39,2.31,4.44,4.06,6.17      c1.75,1.72,3.78,3.06,6.09,4.02C231.32,265.56,233.83,266.03,236.54,266.03z"/>
				<path d="M301.63,277.18c-4.46,0-8.59-0.77-12.41-2.31c-3.82-1.54-7.15-3.7-9.99-6.49c-2.84-2.79-5.05-6.03-6.65-9.75      c-1.59-3.71-2.39-7.75-2.39-12.1c0-4.35,0.78-8.38,2.35-12.1c1.56-3.71,3.77-6.95,6.61-9.71c2.84-2.76,6.17-4.91,9.99-6.45      c3.82-1.54,7.98-2.31,12.49-2.31c4.51,0,8.67,0.77,12.49,2.31c3.82,1.54,7.15,3.69,9.99,6.45c2.84,2.76,5.04,6,6.61,9.71      c1.56,3.71,2.35,7.75,2.35,12.1c0,4.35-0.8,8.38-2.39,12.1c-1.59,3.71-3.81,6.96-6.65,9.75c-2.84,2.79-6.17,4.95-9.99,6.49      C310.23,276.41,306.09,277.18,301.63,277.18z M301.63,266.03c2.71,0,5.21-0.48,7.52-1.43c2.31-0.95,4.34-2.29,6.09-4.02      c1.75-1.72,3.1-3.78,4.06-6.17c0.95-2.39,1.43-5.01,1.43-7.88c0-2.86-0.48-5.48-1.43-7.84c-0.95-2.36-2.31-4.42-4.06-6.17      c-1.75-1.75-3.78-3.09-6.09-4.02c-2.31-0.93-4.81-1.39-7.52-1.39c-2.71,0-5.21,0.47-7.52,1.39c-2.31,0.93-4.34,2.27-6.09,4.02      c-1.75,1.75-3.1,3.81-4.06,6.17c-0.96,2.36-1.43,4.97-1.43,7.84c0,2.86,0.48,5.49,1.43,7.88c0.95,2.39,2.31,4.44,4.06,6.17      c1.75,1.72,3.78,3.06,6.09,4.02C296.42,265.56,298.93,266.03,301.63,266.03z"/>
				<path d="M337.04,276.22v-59.29h12.34v48.54h25.07v10.74H337.04z"/>
			</g>
		</g>
		<g>
			<path d="M395.95,277.18c-3.71,0-7.2-0.68-10.46-2.03c-3.26-1.35-6.08-3.28-8.44-5.77c-2.36-2.49-4.13-5.44-5.29-8.83l10.11-4.54     c1.48,3.24,3.54,5.78,6.17,7.64c2.63,1.86,5.53,2.79,8.71,2.79c1.7,0,3.16-0.26,4.38-0.8c1.22-0.53,2.17-1.26,2.86-2.19     c0.69-0.93,1.03-2.03,1.03-3.3c0-1.38-0.43-2.56-1.27-3.54c-0.85-0.98-2.18-1.76-3.98-2.35l-11.62-3.82     c-4.72-1.54-8.28-3.73-10.66-6.57c-2.39-2.84-3.58-6.25-3.58-10.23c0-3.5,0.86-6.58,2.59-9.23c1.72-2.65,4.14-4.72,7.24-6.21     c3.1-1.48,6.67-2.23,10.7-2.23c3.55,0,6.84,0.61,9.87,1.83c3.02,1.22,5.64,2.94,7.84,5.17c2.2,2.23,3.86,4.91,4.97,8.04     l-10.03,4.54c-1.11-2.76-2.79-4.92-5.01-6.49c-2.23-1.56-4.77-2.35-7.64-2.35c-1.65,0-3.1,0.27-4.38,0.8     c-1.27,0.53-2.26,1.29-2.94,2.27c-0.69,0.98-1.03,2.11-1.03,3.38c0,1.38,0.45,2.59,1.35,3.62c0.9,1.03,2.25,1.84,4.06,2.43     l11.38,3.66c4.77,1.54,8.34,3.69,10.7,6.45c2.36,2.76,3.54,6.13,3.54,10.11c0,3.45-0.9,6.51-2.71,9.19     c-1.8,2.68-4.28,4.77-7.44,6.29C403.81,276.42,400.14,277.18,395.95,277.18z"/>
		</g>
	</g>
</g>
</svg>